<?xml version="1.0" encoding="UTF-8"?>
<svg width="40px" height="40px" viewBox="0 0 40 40" version="1.1" xmlns="http://www.w3.org/2000/svg" xmlns:xlink="http://www.w3.org/1999/xlink">
    <!-- Generator: Sketch 53.2 (72643) - https://sketchapp.com -->
    <title>instagram</title>
    <desc>Created with Sketch.</desc>
    <defs>
        <filter x="-37.5%" y="-37.5%" width="175.0%" height="175.0%" filterUnits="objectBoundingBox" id="filter-1">
            <feOffset dx="0" dy="2" in="SourceAlpha" result="shadowOffsetOuter1"></feOffset>
            <feGaussianBlur stdDeviation="2" in="shadowOffsetOuter1" result="shadowBlurOuter1"></feGaussianBlur>
            <feColorMatrix values="0 0 0 0 1   0 0 0 0 1   0 0 0 0 1  0 0 0 0.5 0" type="matrix" in="shadowBlurOuter1" result="shadowMatrixOuter1"></feColorMatrix>
            <feMerge>
                <feMergeNode in="shadowMatrixOuter1"></feMergeNode>
                <feMergeNode in="SourceGraphic"></feMergeNode>
            </feMerge>
        </filter>
    </defs>
    <g id="Page-1" stroke="none" stroke-width="1" fill="none" fill-rule="evenodd">
        <g id="Home" transform="translate(-1294.000000, -4094.000000)" fill="#FFFFFF" fill-rule="nonzero">
            <g id="Social-Media" transform="translate(1170.000000, 4037.000000)">
                <g id="instagram" filter="url(#filter-1)" transform="translate(128.000000, 59.000000)">
                    <path d="M16,3.094 C20.206,3.094 20.7,3.113 22.363,3.188 C23.901,3.257 24.732,3.513 25.288,3.732 C26.026,4.019 26.55,4.357 27.101,4.907 C27.652,5.457 27.995,5.982 28.276,6.72 C28.488,7.276 28.751,8.107 28.82,9.645 C28.895,11.307 28.914,11.801 28.914,16.008 C28.914,20.215 28.895,20.708 28.82,22.371 C28.751,23.909 28.495,24.74 28.276,25.296 C27.988,26.034 27.651,26.558 27.101,27.109 C26.551,27.66 26.026,28.003 25.288,28.284 C24.732,28.496 23.901,28.759 22.363,28.828 C20.7,28.903 20.207,28.922 16,28.922 C11.793,28.922 11.3,28.903 9.637,28.828 C8.1,28.759 7.268,28.503 6.712,28.284 C5.975,27.996 5.449,27.659 4.899,27.109 C4.349,26.559 4.005,26.034 3.724,25.296 C3.512,24.74 3.249,23.909 3.18,22.371 C3.105,20.708 3.086,20.215 3.086,16.008 C3.086,11.801 3.105,11.308 3.18,9.645 C3.249,8.108 3.505,7.276 3.724,6.72 C4.011,5.983 4.349,5.457 4.899,4.907 C5.449,4.357 5.974,4.013 6.712,3.732 C7.268,3.52 8.1,3.257 9.637,3.188 C11.299,3.107 11.793,3.094 16,3.094 Z M16,0.256 C11.725,0.256 11.187,0.275 9.506,0.35 C7.831,0.425 6.687,0.694 5.687,1.081 C4.65,1.481 3.774,2.025 2.899,2.9 C2.024,3.775 1.486,4.656 1.08,5.688 C0.693,6.688 0.424,7.832 0.349,9.513 C0.274,11.188 0.255,11.726 0.255,16.001 C0.255,20.276 0.274,20.814 0.349,22.495 C0.424,24.17 0.693,25.314 1.08,26.32 C1.48,27.358 2.024,28.233 2.899,29.108 C3.774,29.983 4.655,30.521 5.687,30.927 C6.687,31.314 7.831,31.583 9.512,31.658 C11.193,31.733 11.725,31.752 16.006,31.752 C20.287,31.752 20.819,31.733 22.5,31.658 C24.175,31.583 25.319,31.314 26.325,30.927 C27.363,30.527 28.238,29.983 29.113,29.108 C29.988,28.233 30.526,27.352 30.932,26.32 C31.319,25.32 31.588,24.176 31.663,22.495 C31.738,20.814 31.757,20.283 31.757,16.001 C31.757,11.719 31.738,11.188 31.663,9.507 C31.588,7.832 31.319,6.688 30.932,5.682 C30.532,4.644 29.988,3.769 29.113,2.894 C28.238,2.019 27.357,1.481 26.325,1.075 C25.325,0.688 24.181,0.419 22.5,0.344 C20.812,0.275 20.275,0.256 16,0.256 Z" id="Shape"></path>
                    <path d="M16,7.912 C11.5684759,7.96127796 8.00193192,11.567702 8.00193192,15.9995 C8.00193192,20.431298 11.5684759,24.037722 16,24.087 C20.463,24.087 24.087,20.462 24.087,15.999 C24.087,11.536 20.462,7.911 15.999,7.911 L16,7.912 Z M16,21.25 C13.1005051,21.25 10.75,18.8994949 10.75,16 C10.75,13.1005051 13.1005051,10.75 16,10.75 C18.8994949,10.75 21.25,13.1005051 21.25,16 C21.25,18.8994949 18.8994949,21.25 16,21.25 Z M26.294,7.594 C26.2943573,8.26816019 25.9350273,8.8913005 25.351366,9.22869 C24.7677048,9.5660795 24.0483845,9.5664607 23.464366,9.22969 C22.8803475,8.8929193 22.5203572,8.27016019 22.52,7.596 C22.5191716,6.55383868 23.3633387,5.70832843 24.4055,5.7075 C25.4476613,5.70667157 26.2931716,6.55083868 26.294,7.593 L26.294,7.594 Z" id="Shape"></path>
                </g>
            </g>
        </g>
    </g>
</svg>