<?xml version="1.0" encoding="UTF-8"?>
<svg width="32px" height="26px" viewBox="0 0 32 26" version="1.1" xmlns="http://www.w3.org/2000/svg" xmlns:xlink="http://www.w3.org/1999/xlink">
    <!-- Generator: Sketch 53.2 (72643) - https://sketchapp.com -->
    <title>twitter</title>
    <desc>Created with Sketch.</desc>
    <g id="Page-1" stroke="none" stroke-width="1" fill="none" fill-rule="evenodd">
        <g id="Home" transform="translate(-1170.000000, -4099.000000)" fill="#FFFFFF" fill-rule="nonzero">
            <g id="Social-Media" transform="translate(1170.000000, 4037.000000)">
                <g id="twitter" transform="translate(0.000000, 62.000000)">
                    <path d="M31.281,3.733 C30.4116667,5.01566667 29.3683333,6.10233333 28.151,6.993 C28.151,7.07966667 28.162,7.21566667 28.184,7.401 C28.206,7.58633333 28.217,7.72233333 28.217,7.809 C28.217,9.50433333 27.967,11.1996667 27.467,12.895 C26.967,14.5903333 26.2063333,16.2096667 25.185,17.753 C24.1636667,19.2963333 22.952,20.6656667 21.55,21.861 C20.148,23.0563333 18.4636667,24.0126667 16.497,24.73 C14.5303333,25.4473333 12.4166667,25.806 10.156,25.806 C6.63466667,25.806 3.418,24.8606667 0.506,22.97 C1.11466667,23.0133333 1.61466667,23.035 2.006,23.035 C4.94,23.035 7.559,22.144 9.863,20.362 C8.49366667,20.34 7.271,19.9216667 6.195,19.107 C5.119,18.2923333 4.36366667,17.2436667 3.929,15.961 C4.29833333,16.0476667 4.70033333,16.091 5.135,16.091 C5.72166667,16.091 6.276,16.004 6.798,15.83 C5.342,15.526 4.13566667,14.798 3.179,13.646 C2.22233333,12.494 1.744,11.1683333 1.744,9.669 L1.744,9.604 C2.57,10.0386667 3.51533333,10.2776667 4.58,10.321 C3.73266667,9.75566667 3.059,9.01133333 2.559,8.088 C2.059,7.16466667 1.809,6.17033333 1.809,5.105 C1.809,4.01833333 2.08066667,2.95333333 2.624,1.91 C4.21066667,3.888 6.12866667,5.44733333 8.378,6.588 C10.6273333,7.72866667 13.067,8.36433333 15.697,8.495 C15.545,7.95166667 15.469,7.47366667 15.469,7.061 C15.469,5.32233333 16.0883333,3.839 17.327,2.611 C18.5656667,1.383 20.0763333,0.769 21.859,0.769 C22.7283333,0.769 23.565,0.943 24.369,1.291 C25.173,1.639 25.8576667,2.128 26.423,2.758 C27.8576667,2.47533333 29.1943333,1.96466667 30.433,1.226 C29.9763333,2.704 29.0526667,3.86666667 27.662,4.714 C28.988,4.54 30.1943333,4.214 31.281,3.736 L31.281,3.733 Z" id="Path"></path>
                </g>
            </g>
        </g>
    </g>
</svg>